<?xml version="1.0" encoding="utf-8"?>
<!-- Generator: Adobe Illustrator 24.0.1, SVG Export Plug-In . SVG Version: 6.00 Build 0)  -->
<svg version="1.1" id="Camada_1" xmlns="http://www.w3.org/2000/svg" xmlns:xlink="http://www.w3.org/1999/xlink" x="0px" y="0px"
	 viewBox="0 0 1261.39 256.69" style="enable-background:new 0 0 1261.39 256.69;" xml:space="preserve">
<style type="text/css">
	.st0{fill:url(#SVGID_1_);}
	.st1{fill:#E9D700;}
	.st2{fill:#FFFFFF;}
	.st3{fill:none;}
	.st4{fill:url(#SVGID_2_);}
	.st5{fill:url(#SVGID_3_);}
	.st6{fill:url(#SVGID_4_);}
	.st7{fill:#25ABF2;}
	.st8{fill:url(#SVGID_5_);}
</style>
<g>
	<linearGradient id="SVGID_1_" gradientUnits="userSpaceOnUse" x1="16.1901" y1="240.499" x2="234.8099" y2="21.8793">
		<stop  offset="0" style="stop-color:#128FC6"/>
		<stop  offset="1" style="stop-color:#25ABF2"/>
	</linearGradient>
	<path class="st0" d="M195.72,256.69H55.28C24.75,256.69,0,231.94,0,201.41V60.97C0,30.44,24.75,5.69,55.28,5.69h140.45
		c30.53,0,55.28,24.75,55.28,55.28v140.45C251,231.94,226.25,256.69,195.72,256.69z"/>
	<rect x="118.66" y="147.57" transform="matrix(6.123234e-17 -1 1 6.123234e-17 -53.643 304.643)" width="13.68" height="63.14"/>
	<rect x="118.66" y="147.57" transform="matrix(6.123234e-17 -1 1 6.123234e-17 -53.643 304.643)" width="13.68" height="63.14"/>
	<rect x="118.66" y="168.23" transform="matrix(6.123234e-17 -1 1 6.123234e-17 -74.2962 325.2962)" width="13.68" height="63.14"/>
	<path d="M142.69,213.69c-3.82,5.48-10.17,9.07-17.36,9.07c-7.19,0-13.53-3.59-17.35-9.07H142.69z"/>
	<path class="st3" d="M142.69,213.69c-3.82,5.48-10.17,9.07-17.36,9.07c-7.19,0-13.53-3.59-17.35-9.07H142.69z"/>
	<polygon class="st2" points="147.34,34.72 161.03,34.72 196.29,96.57 161.03,158.34 147.34,158.34 182.6,96.57 	"/>
	<polygon class="st2" points="103.66,34.72 89.97,34.72 54.71,96.57 89.97,158.34 103.66,158.34 68.4,96.57 	"/>
	<polygon points="127.73,58.29 141.41,58.29 123.27,134.57 109.59,134.57 	"/>
	<polygon class="st1" points="203.88,52.95 203.74,53.2 203.46,52.71 	"/>
	<polygon class="st1" points="203.88,53.44 203.46,53.68 203.74,53.2 	"/>
	<g>
		<g>
			<path class="st7" d="M971.75,169.17c0,2.88,2.33,5.21,5.21,5.21h20.84c3.64,0,5.46-1.74,5.46-5.21v-22.39
				c0-2.7-2.19-4.89-4.89-4.89h-21.72c-2.7,0-4.89,2.19-4.89,4.89V169.17z"/>
		</g>
		<g>
			<g>
				<g>
					<path d="M362.8,14.88h-21.09c-2.88,0-5.21,2.33-5.21,5.21v149.07c0,3.47,1.74,5.21,5.21,5.21h21.08c3.48,0,5.21-1.74,5.21-5.21
						V20.09C368.01,17.22,365.68,14.88,362.8,14.88z"/>
				</g>
				<g>
					<path d="M463.75,47.87h-7.94c-12.56,0-20.67,4.47-24.31,13.4h-0.99v-8.18c0-2.88-2.33-5.21-5.21-5.21h-21.08
						c-2.88,0-5.21,2.33-5.21,5.21v116.09c0,3.47,1.74,5.21,5.21,5.21h21.08c3.48,0,5.21-1.74,5.21-5.21V94.01
						c0-12.56,5.7-18.85,17.11-18.85h8.93c5.29,0,9.05,1.11,11.29,3.35c2.24,2.23,3.35,6,3.35,11.28v79.38
						c0,2.88,2.33,5.21,5.21,5.21h20.84c3.63,0,5.45-1.74,5.45-5.21V88.3C502.69,61.35,489.71,47.87,463.75,47.87z"/>
				</g>
				<g>
					<path d="M619.41,58.42c-7.2-7.03-17.25-10.55-30.14-10.55h-22.08c-13.06,0-23.15,3.48-30.26,10.42
						c-7.11,6.94-10.67,16.95-10.67,30.01v45.64c0,13.07,3.55,23.07,10.67,30.01c7.1,6.94,17.2,10.42,30.26,10.42h22.08
						c12.89,0,22.94-3.51,30.14-10.55c7.19-7.02,10.78-16.99,10.78-29.89V88.3C630.19,75.4,626.6,65.44,619.41,58.42z
						 M599.19,132.96c0,5.29-1.12,9.01-3.35,11.15c-2.24,2.15-6,3.23-11.29,3.23H571.9c-5.29,0-9.01-1.08-11.16-3.23
						c-2.15-2.14-3.22-5.86-3.22-11.15V89.3c0-5.29,1.07-9.01,3.22-11.16c2.15-2.15,5.87-3.22,11.16-3.22h12.65
						c5.29,0,9.05,1.07,11.29,3.22c2.23,2.15,3.35,5.87,3.35,11.16V132.96z"/>
				</g>
				<g>
					<path d="M749.25,47.87h-21.82c-3.48,0-5.54,1.74-6.2,5.21l-20.84,93.26h-1.73l-21.34-93.26c-0.66-3.48-2.64-5.21-5.95-5.21
						h-21.83c-3.48,0-4.72,1.74-3.72,5.21l31.01,115.84c0.99,3.64,3.22,5.46,6.69,5.46h31.51c3.8,0,6.03-1.82,6.69-5.46
						l31.25-115.84C753.97,49.61,752.73,47.87,749.25,47.87z"/>
				</g>
				<g>
					<path d="M866.82,47.87h-57.29c-13.07,0-23.15,3.48-30.27,10.42c-7.11,6.94-10.67,16.95-10.67,30.01v45.64
						c0,13.07,3.55,23.07,10.67,30.01c7.11,6.94,17.2,10.42,30.27,10.42h5.95c5.12,0,10.01-1.11,14.64-3.35
						c4.62-2.24,7.85-5.58,9.67-10.05h1v8.19c0,3.47,1.73,5.21,5.21,5.21h20.83c3.64,0,5.46-1.74,5.46-5.21V53.08
						C872.28,49.61,870.46,47.87,866.82,47.87z M840.78,128.24c0,12.57-5.7,18.85-17.12,18.85h-9.17c-5.3,0-9.02-1.11-11.16-3.35
						c-2.15-2.23-3.22-5.99-3.22-11.28V89.79c0-5.28,1.07-9.05,3.22-11.28c2.14-2.24,5.86-3.35,11.16-3.35h23.31
						c1.98,0,2.98,0.91,2.98,2.73V128.24z"/>
				</g>
				<g>
					<path d="M964.31,47.87h-7.94c-12.56,0-20.67,4.47-24.3,13.4h-1v-8.18c0-3.48-1.74-5.21-5.21-5.21h-21.09
						c-2.88,0-5.21,2.33-5.21,5.21v116.09c0,3.47,1.74,5.21,5.21,5.21h21.09c2.88,0,5.21-2.33,5.21-5.21V94.01
						c0-12.56,5.7-18.85,17.11-18.85h8.94c5.29,0,9.05,1.11,11.28,3.35c2.24,2.23,3.35,6,3.35,11.28v36.24
						c0,2.7,2.19,4.89,4.89,4.89h21.72c2.7,0,4.89-2.19,4.89-4.89V88.3C1003.26,61.35,990.27,47.87,964.31,47.87z"/>
				</g>
				<g>
					<path d="M1127.28,0h-21.09c-2.88,0-5.21,2.33-5.21,5.21v56.06h-1c-1.82-4.46-5.05-7.81-9.67-10.05
						c-4.63-2.23-9.51-3.35-14.64-3.35h-10.17c-12.73,0-22.37,3.48-28.9,10.42c-6.53,6.94-9.8,16.95-9.8,30.01v45.64
						c0,13.07,3.27,23.07,9.8,30.01c6.53,6.94,16.17,10.42,28.9,10.42h10.17c5.13,0,10.01-1.11,14.64-3.35
						c4.62-2.24,7.85-5.58,9.67-10.05h1v8.19c0,2.88,2.33,5.21,5.21,5.21h21.09c2.88,0,5.21-2.33,5.21-5.21V5.21
						C1132.48,2.33,1130.15,0,1127.28,0z M1100.98,128.24c0,12.57-5.7,18.85-17.12,18.85h-11.15c-5.3,0-9.02-1.11-11.16-3.35
						c-2.15-2.23-3.22-5.99-3.22-11.28V89.79c0-5.28,1.07-9.05,3.22-11.28c2.14-2.24,5.86-3.35,11.16-3.35h11.15
						c11.42,0,17.12,6.29,17.12,18.85V128.24z"/>
				</g>
				<g>
					<path d="M1250.43,58.42c-7.19-7.03-17.24-10.55-30.14-10.55h-22.07c-13.06,0-23.15,3.48-30.26,10.42
						c-7.11,6.94-10.67,16.95-10.67,30.01v45.64c0,13.07,3.55,23.07,10.67,30.01c7.1,6.94,17.2,10.42,30.26,10.42h22.07
						c12.9,0,22.95-3.51,30.14-10.55c7.2-7.02,10.79-16.99,10.79-29.89V88.3C1261.22,75.4,1257.63,65.44,1250.43,58.42z
						 M1230.21,132.96c0,5.29-1.11,9.01-3.35,11.15c-2.23,2.15-5.99,3.23-11.28,3.23h-12.65c-5.3,0-9.02-1.08-11.16-3.23
						c-2.15-2.14-3.22-5.86-3.22-11.15V89.3c0-5.29,1.07-9.01,3.22-11.16c2.14-2.15,5.86-3.22,11.16-3.22h12.65
						c5.29,0,9.05,1.07,11.28,3.22c2.24,2.15,3.35,5.87,3.35,11.16V132.96z"/>
				</g>
			</g>
			<g>
				<path d="M344.58,246.66c-3.26-1.07-5.83-2.48-7.69-4.23l2.47-4.6c1.75,1.59,4.04,2.89,6.87,3.91c2.82,1.01,5.74,1.52,8.76,1.52
					c4.06,0,7.06-0.71,9-2.14c1.95-1.42,2.92-3.26,2.92-5.51c0-1.75-0.55-3.17-1.64-4.23c-1.1-1.07-2.47-1.88-4.11-2.43
					c-1.64-0.55-3.86-1.15-6.66-1.81c-3.51-0.82-6.33-1.64-8.47-2.47c-2.14-0.82-3.96-2.1-5.47-3.82c-1.51-1.73-2.26-4.04-2.26-6.95
					c0-3.89,1.56-7.06,4.69-9.5c3.12-2.44,7.48-3.66,13.07-3.66c2.79,0,5.52,0.36,8.18,1.07c2.66,0.71,4.92,1.73,6.78,3.04
					l-2.14,4.77c-3.56-2.52-7.89-3.78-12.99-3.78c-3.89,0-6.82,0.73-8.8,2.18c-1.97,1.45-2.96,3.33-2.96,5.63
					c0,1.75,0.55,3.17,1.64,4.23c1.1,1.07,2.48,1.88,4.15,2.43c1.67,0.55,3.93,1.15,6.78,1.81c3.45,0.82,6.25,1.63,8.39,2.43
					c2.14,0.79,3.96,2.04,5.47,3.74s2.26,3.97,2.26,6.82c0,3.95-1.58,7.13-4.73,9.54c-3.15,2.41-7.58,3.62-13.28,3.62
					C351.25,248.26,347.84,247.72,344.58,246.66z"/>
				<path d="M410.61,245.18c-3.81-2.06-6.8-4.89-8.96-8.51c-2.17-3.62-3.25-7.67-3.25-12.17c0-4.44,1.08-8.47,3.25-12.09
					c2.17-3.62,5.15-6.47,8.96-8.55c3.81-2.08,8.04-3.12,12.7-3.12c4.71,0,8.96,1.03,12.74,3.08c3.78,2.05,6.76,4.91,8.92,8.55
					c2.16,3.65,3.25,7.69,3.25,12.13c0,4.49-1.08,8.55-3.25,12.17c-2.17,3.62-5.14,6.45-8.92,8.51c-3.78,2.05-8.03,3.08-12.74,3.08
					C418.65,248.26,414.42,247.23,410.61,245.18z M433.01,240.74c2.91-1.62,5.18-3.84,6.82-6.66c1.64-2.82,2.47-5.99,2.47-9.5
					c0-3.56-0.82-6.76-2.47-9.58c-1.64-2.82-3.92-5.04-6.82-6.66c-2.91-1.62-6.14-2.43-9.7-2.43c-3.56,0-6.8,0.81-9.7,2.43
					c-2.91,1.62-5.18,3.84-6.82,6.66c-1.64,2.82-2.47,6.02-2.47,9.58c0,3.51,0.82,6.67,2.47,9.5c1.64,2.82,3.92,5.04,6.82,6.66
					c2.9,1.62,6.14,2.43,9.7,2.43C426.87,243.16,430.11,242.35,433.01,240.74z"/>
				<path d="M484.81,206.24v17.27h24.01v5.02h-24.01v19.24h-5.92v-46.45h32.81v4.93H484.81z"/>
				<path d="M559.3,206.24h-16.36v-4.93h38.64v4.93h-16.36v41.52h-5.92V206.24z"/>
				<path d="M673.67,201.31l-15.87,46.45h-6.17l-13.32-38.32L625,247.77h-6.33l-15.87-46.45h6.17l13.07,38.81l13.57-38.81h5.59
					l13.4,38.97l13.32-38.97H673.67z"/>
				<path d="M729.59,235.76h-26.06l-5.43,12h-5.92l21.46-46.45h5.84l21.46,46.45h-5.92L729.59,235.76z M727.45,230.99L716.6,206.9
					l-10.94,24.09H727.45z"/>
				<path d="M799.72,247.77l-10.52-14.64c-1.43,0.11-2.49,0.16-3.21,0.16h-12.17v14.47h-5.92v-46.45h18.09
					c6.03,0,10.77,1.41,14.22,4.23c3.45,2.82,5.18,6.76,5.18,11.8c0,3.56-0.92,6.61-2.75,9.13c-1.84,2.52-4.45,4.36-7.85,5.51
					l11.35,15.79H799.72z M795.9,225.57c2.38-1.92,3.58-4.66,3.58-8.22c0-3.56-1.18-6.3-3.53-8.22c-2.36-1.92-5.78-2.88-10.28-2.88
					h-11.84v22.2h11.84C790.1,228.44,793.51,227.48,795.9,225.57z"/>
				<path d="M871.09,242.83v4.93H837.3v-46.45h32.81v4.93h-26.89v15.54h24.01v4.85h-24.01v16.2H871.09z"/>
				<path d="M941.55,201.31h5.92v20.39h28.2v-20.39h5.92v46.45h-5.92v-21.05h-28.2v21.05h-5.92V201.31z"/>
				<path d="M1024.47,245.18c-3.81-2.06-6.8-4.89-8.96-8.51c-2.16-3.62-3.25-7.67-3.25-12.17c0-4.44,1.08-8.47,3.25-12.09
					c2.17-3.62,5.15-6.47,8.96-8.55c3.81-2.08,8.04-3.12,12.7-3.12c4.71,0,8.96,1.03,12.74,3.08c3.78,2.05,6.76,4.91,8.92,8.55
					c2.16,3.65,3.25,7.69,3.25,12.13c0,4.49-1.08,8.55-3.25,12.17c-2.17,3.62-5.14,6.45-8.92,8.51c-3.78,2.05-8.03,3.08-12.74,3.08
					C1032.51,248.26,1028.28,247.23,1024.47,245.18z M1046.88,240.74c2.91-1.62,5.18-3.84,6.82-6.66c1.64-2.82,2.47-5.99,2.47-9.5
					c0-3.56-0.82-6.76-2.47-9.58c-1.64-2.82-3.92-5.04-6.82-6.66s-6.14-2.43-9.7-2.43c-3.56,0-6.8,0.81-9.7,2.43
					s-5.18,3.84-6.82,6.66c-1.64,2.82-2.47,6.02-2.47,9.58c0,3.51,0.82,6.67,2.47,9.5c1.64,2.82,3.92,5.04,6.82,6.66
					c2.91,1.62,6.14,2.43,9.7,2.43C1040.74,243.16,1043.97,242.35,1046.88,240.74z"/>
				<path d="M1097.48,243c-3.48-3.51-5.22-8.5-5.22-14.96v-26.72h5.92v26.56c0,5.04,1.18,8.85,3.54,11.43
					c2.36,2.58,5.78,3.86,10.28,3.86c4.49,0,7.94-1.29,10.32-3.86c2.39-2.58,3.58-6.38,3.58-11.43v-26.56h5.76v26.72
					c0,6.47-1.73,11.46-5.18,14.96c-3.45,3.51-8.28,5.26-14.47,5.26S1100.96,246.51,1097.48,243z"/>
				<path d="M1169.1,246.66c-3.26-1.07-5.83-2.48-7.69-4.23l2.47-4.6c1.75,1.59,4.04,2.89,6.87,3.91c2.82,1.01,5.74,1.52,8.76,1.52
					c4.06,0,7.06-0.71,9-2.14c1.95-1.42,2.92-3.26,2.92-5.51c0-1.75-0.55-3.17-1.64-4.23c-1.1-1.07-2.47-1.88-4.11-2.43
					c-1.64-0.55-3.86-1.15-6.66-1.81c-3.51-0.82-6.33-1.64-8.47-2.47c-2.14-0.82-3.96-2.1-5.47-3.82s-2.26-4.04-2.26-6.95
					c0-3.89,1.56-7.06,4.69-9.5c3.12-2.44,7.48-3.66,13.07-3.66c2.8,0,5.52,0.36,8.18,1.07c2.66,0.71,4.92,1.73,6.78,3.04
					l-2.14,4.77c-3.56-2.52-7.89-3.78-12.99-3.78c-3.89,0-6.83,0.73-8.8,2.18c-1.97,1.45-2.96,3.33-2.96,5.63
					c0,1.75,0.55,3.17,1.64,4.23c1.1,1.07,2.48,1.88,4.15,2.43c1.67,0.55,3.93,1.15,6.78,1.81c3.45,0.82,6.25,1.63,8.39,2.43
					c2.14,0.79,3.96,2.04,5.47,3.74s2.26,3.97,2.26,6.82c0,3.95-1.58,7.13-4.73,9.54c-3.15,2.41-7.58,3.62-13.28,3.62
					C1175.77,248.26,1172.36,247.72,1169.1,246.66z"/>
				<path d="M1261.39,242.83v4.93h-33.79v-46.45h32.81v4.93h-26.89v15.54h24.01v4.85h-24.01v16.2H1261.39z"/>
			</g>
		</g>
	</g>
</g>
</svg>
