<?xml version="1.0" encoding="utf-8"?>
<!-- Generator: Adobe Illustrator 24.0.1, SVG Export Plug-In . SVG Version: 6.00 Build 0)  -->
<svg version="1.1" id="Camada_1" xmlns="http://www.w3.org/2000/svg" xmlns:xlink="http://www.w3.org/1999/xlink" x="0px" y="0px"
	 viewBox="0 0 924.89 725.4" style="enable-background:new 0 0 924.89 725.4;" xml:space="preserve">
<style type="text/css">
	.st0{fill:url(#SVGID_1_);}
	.st1{fill:#E9D700;}
	.st2{fill:#FFFFFF;}
	.st3{fill:none;}
	.st4{fill:url(#SVGID_2_);}
	.st5{fill:url(#SVGID_3_);}
	.st6{fill:url(#SVGID_4_);}
	.st7{fill:#25ABF2;}
	.st8{fill:url(#SVGID_5_);}
</style>
<g>
	<linearGradient id="SVGID_1_" gradientUnits="userSpaceOnUse" x1="285.9356" y1="393.3359" x2="651.0261" y2="28.2455">
		<stop  offset="0" style="stop-color:#128FC6"/>
		<stop  offset="1" style="stop-color:#25ABF2"/>
	</linearGradient>
	<path class="st0" d="M582.84,421.58H354.13c-53.26,0-96.44-43.18-96.44-96.44V96.44C257.69,43.18,300.87,0,354.13,0h228.71
		c53.26,0,96.44,43.18,96.44,96.44v228.71C679.27,378.41,636.1,421.58,582.84,421.58z"/>
	
		<rect x="456.99" y="238.31" transform="matrix(6.123234e-17 -1 1 6.123234e-17 177.1467 759.8151)" width="22.98" height="106.05"/>
	
		<rect x="456.99" y="238.31" transform="matrix(6.123234e-17 -1 1 6.123234e-17 177.1467 759.8151)" width="22.98" height="106.05"/>
	<rect x="456.99" y="273" transform="matrix(6.123234e-17 -1 1 6.123234e-17 142.4573 794.5045)" width="22.98" height="106.05"/>
	<path d="M497.36,349.36c-6.42,9.21-17.08,15.23-29.16,15.23s-22.74-6.02-29.16-15.23H497.36z"/>
	<path class="st3" d="M497.36,349.36c-6.42,9.21-17.08,15.23-29.16,15.23s-22.74-6.02-29.16-15.23H497.36z"/>
	<polygon class="st2" points="505.17,48.77 528.15,48.77 587.38,152.65 528.15,256.39 505.17,256.39 564.39,152.65 	"/>
	<polygon class="st2" points="431.79,48.77 408.81,48.77 349.59,152.65 408.81,256.39 431.79,256.39 372.57,152.65 	"/>
	<polygon points="472.22,88.35 495.2,88.35 464.74,216.47 441.76,216.47 	"/>
	<polygon class="st1" points="41.75,282.09 41.61,282.34 41.33,281.85 	"/>
	<polygon class="st1" points="41.75,282.58 41.33,282.82 41.61,282.34 	"/>
	<g>
		<g>
			<path class="st7" d="M635.25,646.31c0,2.88,2.33,5.21,5.21,5.21h20.84c3.64,0,5.46-1.74,5.46-5.21v-22.39
				c0-2.7-2.19-4.89-4.89-4.89h-21.72c-2.7,0-4.89,2.19-4.89,4.89V646.31z"/>
		</g>
		<g>
			<g>
				<g>
					<path d="M26.3,492.03H5.21c-2.88,0-5.21,2.33-5.21,5.21v149.07c0,3.47,1.74,5.21,5.21,5.21h21.08c3.48,0,5.21-1.74,5.21-5.21
						V497.23C31.51,494.36,29.18,492.03,26.3,492.03z"/>
				</g>
				<g>
					<path d="M127.25,525.01h-7.94c-12.56,0-20.67,4.47-24.31,13.4h-0.99v-8.18c0-2.88-2.33-5.21-5.21-5.21H67.72
						c-2.88,0-5.21,2.33-5.21,5.21v116.09c0,3.47,1.74,5.21,5.21,5.21H88.8c3.48,0,5.21-1.74,5.21-5.21v-75.17
						c0-12.56,5.7-18.85,17.11-18.85h8.93c5.29,0,9.05,1.11,11.29,3.35c2.24,2.23,3.35,6,3.35,11.28v79.38
						c0,2.88,2.33,5.21,5.21,5.21h20.84c3.63,0,5.45-1.74,5.45-5.21v-80.87C166.19,538.49,153.21,525.01,127.25,525.01z"/>
				</g>
				<g>
					<path d="M282.91,535.56c-7.2-7.03-17.25-10.55-30.14-10.55h-22.08c-13.06,0-23.15,3.48-30.26,10.42
						c-7.11,6.94-10.67,16.95-10.67,30.01v45.64c0,13.07,3.55,23.07,10.67,30.01c7.1,6.94,17.2,10.42,30.26,10.42h22.08
						c12.89,0,22.94-3.51,30.14-10.55c7.19-7.02,10.78-16.99,10.78-29.89v-45.64C293.69,552.54,290.1,542.59,282.91,535.56z
						 M262.69,610.1c0,5.29-1.12,9.01-3.35,11.15c-2.24,2.15-6,3.23-11.29,3.23H235.4c-5.29,0-9.01-1.08-11.16-3.23
						c-2.15-2.14-3.22-5.86-3.22-11.15v-43.66c0-5.29,1.07-9.01,3.22-11.16c2.15-2.15,5.87-3.22,11.16-3.22h12.65
						c5.29,0,9.05,1.07,11.29,3.22c2.23,2.15,3.35,5.87,3.35,11.16V610.1z"/>
				</g>
				<g>
					<path d="M412.75,525.01h-21.82c-3.48,0-5.54,1.74-6.2,5.21l-20.84,93.26h-1.73l-21.34-93.26c-0.66-3.48-2.64-5.21-5.95-5.21
						h-21.83c-3.48,0-4.72,1.74-3.72,5.21l31.01,115.84c0.99,3.64,3.22,5.46,6.69,5.46h31.51c3.8,0,6.03-1.82,6.69-5.46
						l31.25-115.84C417.47,526.75,416.23,525.01,412.75,525.01z"/>
				</g>
				<g>
					<path d="M530.32,525.01h-57.29c-13.07,0-23.15,3.48-30.27,10.42c-7.11,6.94-10.67,16.95-10.67,30.01v45.64
						c0,13.07,3.55,23.07,10.67,30.01c7.11,6.94,17.2,10.42,30.27,10.42h5.95c5.12,0,10.01-1.11,14.64-3.35
						c4.62-2.24,7.85-5.58,9.67-10.05h1v8.19c0,3.47,1.73,5.21,5.21,5.21h20.83c3.64,0,5.46-1.74,5.46-5.21V530.22
						C535.78,526.75,533.96,525.01,530.32,525.01z M504.28,605.38c0,12.57-5.7,18.85-17.12,18.85h-9.17c-5.3,0-9.02-1.11-11.16-3.35
						c-2.15-2.23-3.22-5.99-3.22-11.28v-42.67c0-5.28,1.07-9.05,3.22-11.28c2.14-2.24,5.86-3.35,11.16-3.35h23.31
						c1.98,0,2.98,0.91,2.98,2.73V605.38z"/>
				</g>
				<g>
					<path d="M627.81,525.01h-7.94c-12.56,0-20.67,4.47-24.3,13.4h-1v-8.18c0-3.48-1.74-5.21-5.21-5.21h-21.09
						c-2.88,0-5.21,2.33-5.21,5.21v116.09c0,3.47,1.74,5.21,5.21,5.21h21.09c2.88,0,5.21-2.33,5.21-5.21v-75.17
						c0-12.56,5.7-18.85,17.11-18.85h8.94c5.29,0,9.05,1.11,11.28,3.35c2.24,2.23,3.35,6,3.35,11.28v36.24
						c0,2.7,2.19,4.89,4.89,4.89h21.72c2.7,0,4.89-2.19,4.89-4.89v-37.73C666.76,538.49,653.77,525.01,627.81,525.01z"/>
				</g>
				<g>
					<path d="M790.78,477.14h-21.09c-2.88,0-5.21,2.33-5.21,5.21v56.06h-1c-1.82-4.46-5.05-7.81-9.67-10.05
						c-4.63-2.23-9.51-3.35-14.64-3.35h-10.17c-12.73,0-22.37,3.48-28.9,10.42s-9.8,16.95-9.8,30.01v45.64
						c0,13.07,3.27,23.07,9.8,30.01s16.17,10.42,28.9,10.42h10.17c5.13,0,10.01-1.11,14.64-3.35c4.62-2.24,7.85-5.58,9.67-10.05h1
						v8.19c0,2.88,2.33,5.21,5.21,5.21h21.09c2.88,0,5.21-2.33,5.21-5.21V482.35C795.98,479.47,793.65,477.14,790.78,477.14z
						 M764.48,605.38c0,12.57-5.7,18.85-17.12,18.85h-11.15c-5.3,0-9.02-1.11-11.16-3.35c-2.15-2.23-3.22-5.99-3.22-11.28v-42.67
						c0-5.28,1.07-9.05,3.22-11.28c2.14-2.24,5.86-3.35,11.16-3.35h11.15c11.42,0,17.12,6.29,17.12,18.85V605.38z"/>
				</g>
				<g>
					<path d="M913.93,535.56c-7.19-7.03-17.24-10.55-30.14-10.55h-22.07c-13.06,0-23.15,3.48-30.26,10.42
						c-7.11,6.94-10.67,16.95-10.67,30.01v45.64c0,13.07,3.55,23.07,10.67,30.01c7.1,6.94,17.2,10.42,30.26,10.42h22.07
						c12.9,0,22.95-3.51,30.14-10.55c7.2-7.02,10.79-16.99,10.79-29.89v-45.64C924.72,552.54,921.13,542.59,913.93,535.56z
						 M893.71,610.1c0,5.29-1.11,9.01-3.35,11.15c-2.23,2.15-5.99,3.23-11.28,3.23h-12.65c-5.3,0-9.02-1.08-11.16-3.23
						c-2.15-2.14-3.22-5.86-3.22-11.15v-43.66c0-5.29,1.07-9.01,3.22-11.16c2.14-2.15,5.86-3.22,11.16-3.22h12.65
						c5.29,0,9.05,1.07,11.28,3.22c2.24,2.15,3.35,5.87,3.35,11.16V610.1z"/>
				</g>
			</g>
			<g>
				<path d="M8.08,723.8c-3.26-1.07-5.83-2.48-7.69-4.23l2.47-4.6c1.75,1.59,4.04,2.89,6.87,3.91c2.82,1.01,5.74,1.52,8.76,1.52
					c4.06,0,7.06-0.71,9-2.14c1.95-1.42,2.92-3.26,2.92-5.51c0-1.75-0.55-3.17-1.64-4.23c-1.1-1.07-2.47-1.88-4.11-2.43
					c-1.64-0.55-3.86-1.15-6.66-1.81c-3.51-0.82-6.33-1.64-8.47-2.47c-2.14-0.82-3.96-2.1-5.47-3.82c-1.51-1.73-2.26-4.04-2.26-6.95
					c0-3.89,1.56-7.06,4.69-9.5c3.12-2.44,7.48-3.66,13.07-3.66c2.79,0,5.52,0.36,8.18,1.07c2.66,0.71,4.92,1.73,6.78,3.04
					l-2.14,4.77c-3.56-2.52-7.89-3.78-12.99-3.78c-3.89,0-6.82,0.73-8.8,2.18c-1.97,1.45-2.96,3.33-2.96,5.63
					c0,1.75,0.55,3.17,1.64,4.23c1.1,1.07,2.48,1.88,4.15,2.43c1.67,0.55,3.93,1.15,6.78,1.81c3.45,0.82,6.25,1.63,8.39,2.43
					c2.14,0.79,3.96,2.04,5.47,3.74s2.26,3.97,2.26,6.82c0,3.95-1.58,7.13-4.73,9.54c-3.15,2.41-7.58,3.62-13.28,3.62
					C14.75,725.4,11.34,724.87,8.08,723.8z"/>
				<path d="M74.11,722.32c-3.81-2.06-6.8-4.89-8.96-8.51c-2.17-3.62-3.25-7.67-3.25-12.17c0-4.44,1.08-8.47,3.25-12.09
					c2.17-3.62,5.15-6.47,8.96-8.55c3.81-2.08,8.04-3.12,12.7-3.12c4.71,0,8.96,1.03,12.74,3.08c3.78,2.05,6.76,4.91,8.92,8.55
					c2.16,3.65,3.25,7.69,3.25,12.13c0,4.49-1.08,8.55-3.25,12.17c-2.17,3.62-5.14,6.45-8.92,8.51c-3.78,2.05-8.03,3.08-12.74,3.08
					C82.15,725.4,77.92,724.37,74.11,722.32z M96.51,717.88c2.91-1.62,5.18-3.84,6.82-6.66c1.64-2.82,2.47-5.99,2.47-9.5
					c0-3.56-0.82-6.76-2.47-9.58c-1.64-2.82-3.92-5.04-6.82-6.66s-6.14-2.43-9.7-2.43c-3.56,0-6.8,0.81-9.7,2.43
					c-2.91,1.62-5.18,3.84-6.82,6.66c-1.64,2.82-2.47,6.02-2.47,9.58c0,3.51,0.82,6.67,2.47,9.5c1.64,2.82,3.92,5.04,6.82,6.66
					c2.9,1.62,6.14,2.43,9.7,2.43C90.37,720.3,93.61,719.49,96.51,717.88z"/>
				<path d="M148.31,683.38v17.27h24.01v5.02h-24.01v19.24h-5.92v-46.45h32.81v4.93H148.31z"/>
				<path d="M222.8,683.38h-16.36v-4.93h38.64v4.93h-16.36v41.52h-5.92V683.38z"/>
				<path d="M337.17,678.45l-15.87,46.45h-6.17l-13.32-38.32l-13.32,38.32h-6.33l-15.87-46.45h6.17l13.07,38.81l13.57-38.81h5.59
					l13.4,38.97l13.32-38.97H337.17z"/>
				<path d="M393.09,712.9h-26.06l-5.43,12h-5.92l21.46-46.45h5.84l21.46,46.45h-5.92L393.09,712.9z M390.95,708.13l-10.85-24.09
					l-10.94,24.09H390.95z"/>
				<path d="M463.22,724.91l-10.52-14.64c-1.43,0.11-2.49,0.16-3.21,0.16h-12.17v14.47h-5.92v-46.45h18.09
					c6.03,0,10.77,1.41,14.22,4.23c3.45,2.82,5.18,6.76,5.18,11.8c0,3.56-0.92,6.61-2.75,9.13c-1.84,2.52-4.45,4.36-7.85,5.51
					l11.35,15.79H463.22z M459.4,702.71c2.38-1.92,3.58-4.66,3.58-8.22c0-3.56-1.18-6.3-3.53-8.22c-2.36-1.92-5.78-2.88-10.28-2.88
					h-11.84v22.2h11.84C453.6,705.58,457.01,704.63,459.4,702.71z"/>
				<path d="M534.59,719.97v4.93H500.8v-46.45h32.81v4.93h-26.89v15.54h24.01v4.85h-24.01v16.2H534.59z"/>
				<path d="M605.05,678.45h5.92v20.39h28.2v-20.39h5.92v46.45h-5.92v-21.05h-28.2v21.05h-5.92V678.45z"/>
				<path d="M687.97,722.32c-3.81-2.06-6.8-4.89-8.96-8.51c-2.16-3.62-3.25-7.67-3.25-12.17c0-4.44,1.08-8.47,3.25-12.09
					c2.17-3.62,5.15-6.47,8.96-8.55c3.81-2.08,8.04-3.12,12.7-3.12c4.71,0,8.96,1.03,12.74,3.08c3.78,2.05,6.76,4.91,8.92,8.55
					c2.16,3.65,3.25,7.69,3.25,12.13c0,4.49-1.08,8.55-3.25,12.17c-2.17,3.62-5.14,6.45-8.92,8.51c-3.78,2.05-8.03,3.08-12.74,3.08
					C696.01,725.4,691.78,724.37,687.97,722.32z M710.38,717.88c2.91-1.62,5.18-3.84,6.82-6.66c1.64-2.82,2.47-5.99,2.47-9.5
					c0-3.56-0.82-6.76-2.47-9.58c-1.64-2.82-3.92-5.04-6.82-6.66s-6.14-2.43-9.7-2.43c-3.56,0-6.8,0.81-9.7,2.43
					c-2.91,1.62-5.18,3.84-6.82,6.66c-1.64,2.82-2.47,6.02-2.47,9.58c0,3.51,0.82,6.67,2.47,9.5c1.64,2.82,3.92,5.04,6.82,6.66
					c2.91,1.62,6.14,2.43,9.7,2.43C704.24,720.3,707.47,719.49,710.38,717.88z"/>
				<path d="M760.98,720.14c-3.48-3.51-5.22-8.5-5.22-14.96v-26.72h5.92v26.56c0,5.04,1.18,8.85,3.54,11.43
					c2.36,2.58,5.78,3.86,10.28,3.86c4.49,0,7.94-1.29,10.32-3.86c2.39-2.58,3.58-6.38,3.58-11.43v-26.56h5.76v26.72
					c0,6.47-1.73,11.46-5.18,14.96c-3.45,3.51-8.28,5.26-14.47,5.26C769.3,725.4,764.46,723.65,760.98,720.14z"/>
				<path d="M832.6,723.8c-3.26-1.07-5.83-2.48-7.69-4.23l2.47-4.6c1.75,1.59,4.04,2.89,6.87,3.91c2.82,1.01,5.74,1.52,8.76,1.52
					c4.06,0,7.06-0.71,9-2.14c1.95-1.42,2.92-3.26,2.92-5.51c0-1.75-0.55-3.17-1.64-4.23c-1.1-1.07-2.47-1.88-4.11-2.43
					c-1.64-0.55-3.86-1.15-6.66-1.81c-3.51-0.82-6.33-1.64-8.47-2.47c-2.14-0.82-3.96-2.1-5.47-3.82c-1.51-1.73-2.26-4.04-2.26-6.95
					c0-3.89,1.56-7.06,4.69-9.5c3.12-2.44,7.48-3.66,13.07-3.66c2.8,0,5.52,0.36,8.18,1.07c2.66,0.71,4.92,1.73,6.78,3.04
					l-2.14,4.77c-3.56-2.52-7.89-3.78-12.99-3.78c-3.89,0-6.83,0.73-8.8,2.18c-1.97,1.45-2.96,3.33-2.96,5.63
					c0,1.75,0.55,3.17,1.64,4.23c1.1,1.07,2.48,1.88,4.15,2.43c1.67,0.55,3.93,1.15,6.78,1.81c3.45,0.82,6.25,1.63,8.39,2.43
					c2.14,0.79,3.96,2.04,5.47,3.74s2.26,3.97,2.26,6.82c0,3.95-1.58,7.13-4.73,9.54c-3.15,2.41-7.58,3.62-13.28,3.62
					C839.27,725.4,835.86,724.87,832.6,723.8z"/>
				<path d="M924.89,719.97v4.93H891.1v-46.45h32.81v4.93h-26.89v15.54h24.01v4.85h-24.01v16.2H924.89z"/>
			</g>
		</g>
	</g>
</g>
</svg>
