<svg width="119" height="64" viewBox="0 0 119 64" fill="none" xmlns="http://www.w3.org/2000/svg">
<path d="M51.3571 8.83019H71.7143C75.4619 8.83019 78.5 11.8713 78.5 15.6226V29.2075C78.5 32.9589 75.4619 36 71.7143 36H51.3571V8.83019Z" fill="#091915"/>
<path d="M40.5 6.79245C40.5 3.04109 43.5381 0 47.2857 0H67.6429V27.1698H47.2857C43.5381 27.1698 40.5 24.1287 40.5 20.3774V6.79245Z" fill="#133929"/>
<path d="M51.3571 8.83019H71.7143C75.4619 8.83019 78.5 11.8713 78.5 15.6226V29.2075C78.5 32.9589 75.4619 36 71.7143 36H51.3571V8.83019Z" fill="url(#paint0_linear_7_494)"/>
<path d="M40.5 6.79245C40.5 3.04109 43.5381 0 47.2857 0H67.6429V27.1698H47.2857C43.5381 27.1698 40.5 24.1287 40.5 20.3774V6.79245Z" fill="url(#paint1_linear_7_494)"/>
<path d="M4.21591 60.1541C3.4768 60.1541 2.84044 59.9867 2.30682 59.652C1.77652 59.3139 1.36884 58.8482 1.08381 58.255C0.798769 57.6617 0.65625 56.9822 0.65625 56.2166C0.65625 55.4411 0.802083 54.7566 1.09375 54.1634C1.38542 53.5668 1.7964 53.1011 2.3267 52.7663C2.85701 52.4316 3.48177 52.2642 4.20099 52.2642C4.78101 52.2642 5.29806 52.3719 5.75213 52.5874C6.2062 52.7995 6.57244 53.0978 6.85085 53.4822C7.13258 53.8667 7.29995 54.3158 7.35298 54.8295H5.90625C5.8267 54.4716 5.64441 54.1634 5.35938 53.9048C5.07765 53.6463 4.69981 53.517 4.22585 53.517C3.81155 53.517 3.44863 53.6264 3.13707 53.8452C2.82884 54.0606 2.58854 54.3688 2.41619 54.7699C2.24384 55.1676 2.15767 55.6383 2.15767 56.1818C2.15767 56.7386 2.24219 57.2192 2.41122 57.6236C2.58026 58.0279 2.81889 58.3411 3.12713 58.5632C3.43868 58.7853 3.80492 58.8963 4.22585 58.8963C4.50758 58.8963 4.76278 58.8449 4.99148 58.7422C5.22349 58.6361 5.41738 58.4853 5.57315 58.2898C5.73224 58.0942 5.84328 57.8589 5.90625 57.5838H7.35298C7.29995 58.0777 7.1392 58.5185 6.87074 58.9062C6.60227 59.294 6.24266 59.599 5.7919 59.821C5.34446 60.0431 4.81913 60.1541 4.21591 60.1541ZM13.3493 60.1541C12.6334 60.1541 12.0086 59.9901 11.475 59.6619C10.9414 59.3338 10.5271 58.8748 10.2321 58.2848C9.9371 57.6948 9.78961 57.0054 9.78961 56.2166C9.78961 55.4245 9.9371 54.7318 10.2321 54.1385C10.5271 53.5452 10.9414 53.0845 11.475 52.7564C12.0086 52.4283 12.6334 52.2642 13.3493 52.2642C14.0652 52.2642 14.6899 52.4283 15.2236 52.7564C15.7572 53.0845 16.1715 53.5452 16.4665 54.1385C16.7614 54.7318 16.9089 55.4245 16.9089 56.2166C16.9089 57.0054 16.7614 57.6948 16.4665 58.2848C16.1715 58.8748 15.7572 59.3338 15.2236 59.6619C14.6899 59.9901 14.0652 60.1541 13.3493 60.1541ZM13.3542 58.9062C13.8183 58.9062 14.2027 58.7836 14.5076 58.5384C14.8126 58.2931 15.038 57.9666 15.1838 57.5589C15.3329 57.1513 15.4075 56.7022 15.4075 56.2116C15.4075 55.7244 15.3329 55.277 15.1838 54.8693C15.038 54.4583 14.8126 54.1286 14.5076 53.88C14.2027 53.6314 13.8183 53.5071 13.3542 53.5071C12.8869 53.5071 12.4991 53.6314 12.1909 53.88C11.886 54.1286 11.6589 54.4583 11.5098 54.8693C11.3639 55.277 11.291 55.7244 11.291 56.2116C11.291 56.7022 11.3639 57.1513 11.5098 57.5589C11.6589 57.9666 11.886 58.2931 12.1909 58.5384C12.4991 58.7836 12.8869 58.9062 13.3542 58.9062ZM22.6169 60.1491C22.0004 60.1491 21.4502 59.9917 20.9663 59.6768C20.4857 59.3587 20.1079 58.9062 19.8328 58.3196C19.561 57.7296 19.4251 57.022 19.4251 56.1967C19.4251 55.3714 19.5626 54.6655 19.8377 54.0788C20.1162 53.4922 20.4973 53.0431 20.9812 52.7315C21.4651 52.42 22.0136 52.2642 22.6268 52.2642C23.1008 52.2642 23.4819 52.3438 23.7703 52.5028C24.0619 52.6586 24.2873 52.8409 24.4464 53.0497C24.6088 53.2585 24.7348 53.4425 24.8242 53.6016H24.9137V49.8182H26.4002V60H24.9485V58.8118H24.8242C24.7348 58.9742 24.6055 59.1598 24.4365 59.3686C24.2707 59.5774 24.0421 59.7597 23.7504 59.9155C23.4587 60.0713 23.0809 60.1491 22.6169 60.1491ZM22.945 58.8814C23.3725 58.8814 23.7338 58.7687 24.0288 58.5433C24.3271 58.3146 24.5525 57.9981 24.7049 57.5938C24.8607 57.1894 24.9386 56.7187 24.9386 56.1818C24.9386 55.6515 24.8624 55.1875 24.7099 54.7898C24.5574 54.392 24.3337 54.0821 24.0387 53.8601C23.7438 53.638 23.3792 53.527 22.945 53.527C22.4975 53.527 22.1247 53.643 21.8264 53.875C21.5281 54.107 21.3027 54.4235 21.1502 54.8246C21.0011 55.2256 20.9265 55.678 20.9265 56.1818C20.9265 56.6922 21.0028 57.1513 21.1552 57.5589C21.3077 57.9666 21.5331 58.2898 21.8314 58.5284C22.133 58.7637 22.5042 58.8814 22.945 58.8814ZM33.0031 60.1541C32.2507 60.1541 31.6027 59.9934 31.0592 59.6719C30.5189 59.3471 30.1013 58.8913 29.8063 58.3047C29.5147 57.7147 29.3688 57.0237 29.3688 56.2315C29.3688 55.4493 29.5147 54.7599 29.8063 54.1634C30.1013 53.5668 30.5123 53.1011 31.0393 52.7663C31.5696 52.4316 32.1894 52.2642 32.8987 52.2642C33.3295 52.2642 33.7471 52.3355 34.1515 52.478C34.5559 52.6205 34.9188 52.8442 35.2403 53.1491C35.5618 53.4541 35.8153 53.8501 36.0009 54.3374C36.1865 54.8213 36.2793 55.4096 36.2793 56.1023V56.6293H30.209V55.5156H34.8227C34.8227 55.1245 34.7431 54.7782 34.584 54.4766C34.4249 54.1716 34.2012 53.9313 33.9129 53.7557C33.6278 53.58 33.2931 53.4922 32.9086 53.4922C32.491 53.4922 32.1264 53.5949 31.8149 53.8004C31.5066 54.0026 31.268 54.2678 31.0989 54.5959C30.9332 54.9207 30.8504 55.2737 30.8504 55.6548V56.5249C30.8504 57.0353 30.9399 57.4695 31.1188 57.8274C31.3011 58.1854 31.5547 58.4588 31.8795 58.6477C32.2043 58.8333 32.5838 58.9261 33.018 58.9261C33.2997 58.9261 33.5566 58.8864 33.7886 58.8068C34.0206 58.724 34.2211 58.6013 34.3901 58.4389C34.5592 58.2765 34.6884 58.076 34.7779 57.8374L36.1849 58.0909C36.0722 58.5052 35.87 58.8681 35.5783 59.1797C35.29 59.4879 34.9271 59.7282 34.4896 59.9006C34.0554 60.0696 33.5599 60.1541 33.0031 60.1541ZM47.2154 63.0227C46.6089 63.0227 46.0869 62.9432 45.6494 62.7841C45.2152 62.625 44.8606 62.4145 44.5855 62.1527C44.3104 61.8909 44.1049 61.6042 43.969 61.2926L45.2467 60.7656C45.3362 60.9115 45.4555 61.0656 45.6047 61.228C45.7571 61.3937 45.9626 61.5346 46.2211 61.6506C46.483 61.7666 46.8194 61.8246 47.2304 61.8246C47.7938 61.8246 48.2595 61.687 48.6274 61.4119C48.9953 61.1402 49.1792 60.706 49.1792 60.1094V58.608H49.0848C48.9953 58.7704 48.866 58.951 48.697 59.1499C48.5313 59.3487 48.3026 59.5211 48.0109 59.6669C47.7192 59.8127 47.3397 59.8857 46.8724 59.8857C46.2692 59.8857 45.7256 59.7448 45.2417 59.4631C44.7611 59.178 44.38 58.7588 44.0983 58.2053C43.8199 57.6484 43.6806 56.964 43.6806 56.152C43.6806 55.34 43.8182 54.6439 44.0933 54.0639C44.3717 53.4839 44.7529 53.0398 45.2368 52.7315C45.7207 52.42 46.2692 52.2642 46.8824 52.2642C47.3563 52.2642 47.7391 52.3438 48.0308 52.5028C48.3225 52.6586 48.5495 52.8409 48.7119 53.0497C48.8776 53.2585 49.0052 53.4425 49.0947 53.6016H49.2041V52.3636H50.6608V60.169C50.6608 60.8253 50.5083 61.3639 50.2034 61.7848C49.8985 62.2057 49.4858 62.5173 48.9654 62.7195C48.4484 62.9216 47.8651 63.0227 47.2154 63.0227ZM47.2005 58.6527C47.6281 58.6527 47.9894 58.5533 48.2843 58.3544C48.5826 58.1522 48.808 57.8639 48.9605 57.4893C49.1163 57.1115 49.1941 56.6591 49.1941 56.1321C49.1941 55.6184 49.1179 55.166 48.9654 54.7749C48.813 54.3838 48.5893 54.0788 48.2943 53.8601C47.9993 53.638 47.6347 53.527 47.2005 53.527C46.7531 53.527 46.3802 53.643 46.0819 53.875C45.7836 54.1037 45.5583 54.4152 45.4058 54.8097C45.2566 55.2041 45.1821 55.6449 45.1821 56.1321C45.1821 56.6326 45.2583 57.0717 45.4108 57.4496C45.5632 57.8274 45.7886 58.1224 46.0869 58.3345C46.3885 58.5466 46.7597 58.6527 47.2005 58.6527ZM57.1356 60.1541C56.3832 60.1541 55.7352 59.9934 55.1917 59.6719C54.6514 59.3471 54.2338 58.8913 53.9388 58.3047C53.6472 57.7147 53.5013 57.0237 53.5013 56.2315C53.5013 55.4493 53.6472 54.7599 53.9388 54.1634C54.2338 53.5668 54.6448 53.1011 55.1718 52.7663C55.7021 52.4316 56.3219 52.2642 57.0312 52.2642C57.462 52.2642 57.8796 52.3355 58.284 52.478C58.6884 52.6205 59.0513 52.8442 59.3728 53.1491C59.6943 53.4541 59.9478 53.8501 60.1334 54.3374C60.319 54.8213 60.4118 55.4096 60.4118 56.1023V56.6293H54.3415V55.5156H58.9552C58.9552 55.1245 58.8756 54.7782 58.7165 54.4766C58.5574 54.1716 58.3337 53.9313 58.0454 53.7557C57.7603 53.58 57.4256 53.4922 57.0411 53.4922C56.6235 53.4922 56.2589 53.5949 55.9474 53.8004C55.6391 54.0026 55.4005 54.2678 55.2314 54.5959C55.0657 54.9207 54.9829 55.2737 54.9829 55.6548V56.5249C54.9829 57.0353 55.0724 57.4695 55.2513 57.8274C55.4336 58.1854 55.6872 58.4588 56.012 58.6477C56.3368 58.8333 56.7163 58.9261 57.1505 58.9261C57.4322 58.9261 57.6891 58.8864 57.9211 58.8068C58.1531 58.724 58.3536 58.6013 58.5226 58.4389C58.6917 58.2765 58.8209 58.076 58.9104 57.8374L60.3174 58.0909C60.2047 58.5052 60.0025 58.8681 59.7108 59.1797C59.4225 59.4879 59.0596 59.7282 58.6221 59.9006C58.1879 60.0696 57.6924 60.1541 57.1356 60.1541ZM64.7377 55.4659V60H63.2512V52.3636H64.678V53.6065H64.7725C64.9481 53.2022 65.2232 52.8774 65.5978 52.6321C65.9756 52.3868 66.4512 52.2642 67.0246 52.2642C67.545 52.2642 68.0007 52.3736 68.3918 52.5923C68.7829 52.8078 69.0862 53.1293 69.3016 53.5568C69.517 53.9844 69.6247 54.513 69.6247 55.1428V60H68.1382V55.3217C68.1382 54.7682 67.9941 54.3357 67.7057 54.0241C67.4174 53.7093 67.0213 53.5518 66.5175 53.5518C66.1728 53.5518 65.8662 53.6264 65.5978 53.7756C65.3326 53.9247 65.1221 54.1435 64.9664 54.4318C64.8139 54.7169 64.7377 55.0616 64.7377 55.4659ZM76.0995 60.1541C75.3472 60.1541 74.6992 59.9934 74.1557 59.6719C73.6154 59.3471 73.1978 58.8913 72.9028 58.3047C72.6112 57.7147 72.4653 57.0237 72.4653 56.2315C72.4653 55.4493 72.6112 54.7599 72.9028 54.1634C73.1978 53.5668 73.6088 53.1011 74.1358 52.7663C74.6661 52.4316 75.2859 52.2642 75.9951 52.2642C76.426 52.2642 76.8436 52.3355 77.248 52.478C77.6523 52.6205 78.0153 52.8442 78.3368 53.1491C78.6583 53.4541 78.9118 53.8501 79.0974 54.3374C79.283 54.8213 79.3758 55.4096 79.3758 56.1023V56.6293H73.3055V55.5156H77.9192C77.9192 55.1245 77.8396 54.7782 77.6805 54.4766C77.5214 54.1716 77.2977 53.9313 77.0094 53.7557C76.7243 53.58 76.3896 53.4922 76.0051 53.4922C75.5875 53.4922 75.2229 53.5949 74.9113 53.8004C74.6031 54.0026 74.3645 54.2678 74.1954 54.5959C74.0297 54.9207 73.9469 55.2737 73.9469 55.6548V56.5249C73.9469 57.0353 74.0363 57.4695 74.2153 57.8274C74.3976 58.1854 74.6512 58.4588 74.976 58.6477C75.3008 58.8333 75.6803 58.9261 76.1145 58.9261C76.3962 58.9261 76.6531 58.8864 76.8851 58.8068C77.1171 58.724 77.3176 58.6013 77.4866 58.4389C77.6557 58.2765 77.7849 58.076 77.8744 57.8374L79.2814 58.0909C79.1687 58.5052 78.9665 58.8681 78.6748 59.1797C78.3865 59.4879 78.0236 59.7282 77.5861 59.9006C77.1519 60.0696 76.6564 60.1541 76.0995 60.1541ZM82.2151 60V52.3636H83.6519V53.5767H83.7315C83.8707 53.1657 84.116 52.8426 84.4673 52.6072C84.8219 52.3686 85.223 52.2493 85.6704 52.2493C85.7632 52.2493 85.8726 52.2526 85.9985 52.2592C86.1278 52.2659 86.2289 52.2741 86.3018 52.2841V53.706C86.2421 53.6894 86.1361 53.6712 85.9836 53.6513C85.8312 53.6281 85.6787 53.6165 85.5262 53.6165C85.1749 53.6165 84.8617 53.6911 84.5866 53.8402C84.3148 53.986 84.0994 54.1899 83.9403 54.4517C83.7812 54.7102 83.7017 55.0052 83.7017 55.3366V60H82.2151ZM90.9321 60.169C90.4482 60.169 90.0107 60.0795 89.6196 59.9006C89.2285 59.7183 88.9186 59.4548 88.69 59.1101C88.4646 58.7654 88.3519 58.3428 88.3519 57.8423C88.3519 57.4115 88.4347 57.0568 88.6005 56.7784C88.7662 56.5 88.9899 56.2796 89.2716 56.1172C89.5534 55.9548 89.8682 55.8321 90.2162 55.7493C90.5642 55.6664 90.9189 55.6035 91.2802 55.5604C91.7375 55.5073 92.1087 55.4643 92.3938 55.4311C92.6788 55.3946 92.886 55.3366 93.0152 55.2571C93.1445 55.1776 93.2091 55.0483 93.2091 54.8693V54.8345C93.2091 54.4003 93.0865 54.0639 92.8412 53.8253C92.5993 53.5866 92.238 53.4673 91.7574 53.4673C91.2569 53.4673 90.8625 53.5784 90.5742 53.8004C90.2891 54.0192 90.0919 54.2628 89.9826 54.5312L88.5855 54.2131C88.7513 53.7491 88.9932 53.3745 89.3114 53.0895C89.6329 52.8011 90.0025 52.5923 90.4201 52.4631C90.8377 52.3305 91.2768 52.2642 91.7375 52.2642C92.0425 52.2642 92.3656 52.3007 92.707 52.3736C93.0517 52.4432 93.3732 52.5724 93.6715 52.7614C93.9731 52.9503 94.22 53.2204 94.4123 53.5717C94.6045 53.9197 94.7006 54.3722 94.7006 54.929V60H93.2489V58.956H93.1892C93.0931 59.1482 92.9489 59.3371 92.7567 59.5227C92.5645 59.7083 92.3176 59.8625 92.0159 59.9851C91.7143 60.1077 91.3531 60.169 90.9321 60.169ZM91.2553 58.9759C91.6663 58.9759 92.0176 58.8946 92.3093 58.7322C92.6043 58.5698 92.828 58.3577 92.9804 58.0959C93.1362 57.8307 93.2141 57.5473 93.2141 57.2457V56.2614C93.1611 56.3144 93.0583 56.3641 92.9059 56.4105C92.7567 56.4536 92.586 56.4917 92.3938 56.5249C92.2016 56.5547 92.0143 56.5829 91.832 56.6094C91.6497 56.6326 91.4972 56.6525 91.3746 56.669C91.0863 56.7055 90.8228 56.7668 90.5841 56.853C90.3488 56.9392 90.1599 57.0634 90.0174 57.2259C89.8782 57.3849 89.8086 57.5971 89.8086 57.8622C89.8086 58.2301 89.9444 58.5085 90.2162 58.6974C90.488 58.883 90.8344 58.9759 91.2553 58.9759ZM101.435 52.3636V53.5568H97.264V52.3636H101.435ZM98.3826 50.5341H99.8691V57.7578C99.8691 58.0462 99.9122 58.2633 99.9984 58.4091C100.085 58.5516 100.196 58.6494 100.331 58.7024C100.471 58.7521 100.621 58.777 100.784 58.777C100.903 58.777 101.008 58.7687 101.097 58.7521C101.187 58.7356 101.256 58.7223 101.306 58.7124L101.574 59.9403C101.488 59.9735 101.366 60.0066 101.206 60.0398C101.047 60.0762 100.849 60.0961 100.61 60.0994C100.219 60.1061 99.8542 60.0365 99.5161 59.8906C99.1781 59.7448 98.9046 59.5194 98.6958 59.2145C98.487 58.9096 98.3826 58.5268 98.3826 58.0661V50.5341ZM107.404 60.1541C106.688 60.1541 106.063 59.9901 105.53 59.6619C104.996 59.3338 104.582 58.8748 104.287 58.2848C103.992 57.6948 103.844 57.0054 103.844 56.2166C103.844 55.4245 103.992 54.7318 104.287 54.1385C104.582 53.5452 104.996 53.0845 105.53 52.7564C106.063 52.4283 106.688 52.2642 107.404 52.2642C108.12 52.2642 108.745 52.4283 109.278 52.7564C109.812 53.0845 110.226 53.5452 110.521 54.1385C110.816 54.7318 110.964 55.4245 110.964 56.2166C110.964 57.0054 110.816 57.6948 110.521 58.2848C110.226 58.8748 109.812 59.3338 109.278 59.6619C108.745 59.9901 108.12 60.1541 107.404 60.1541ZM107.409 58.9062C107.873 58.9062 108.258 58.7836 108.562 58.5384C108.867 58.2931 109.093 57.9666 109.239 57.5589C109.388 57.1513 109.462 56.7022 109.462 56.2116C109.462 55.7244 109.388 55.277 109.239 54.8693C109.093 54.4583 108.867 54.1286 108.562 53.88C108.258 53.6314 107.873 53.5071 107.409 53.5071C106.942 53.5071 106.554 53.6314 106.246 53.88C105.941 54.1286 105.714 54.4583 105.565 54.8693C105.419 55.277 105.346 55.7244 105.346 56.2116C105.346 56.7022 105.419 57.1513 105.565 57.5589C105.714 57.9666 105.941 58.2931 106.246 58.5384C106.554 58.7836 106.942 58.9062 107.409 58.9062ZM113.813 60V52.3636H115.25V53.5767H115.329C115.469 53.1657 115.714 52.8426 116.065 52.6072C116.42 52.3686 116.821 52.2493 117.268 52.2493C117.361 52.2493 117.47 52.2526 117.596 52.2592C117.726 52.2659 117.827 52.2741 117.9 52.2841V53.706C117.84 53.6894 117.734 53.6712 117.582 53.6513C117.429 53.6281 117.277 53.6165 117.124 53.6165C116.773 53.6165 116.46 53.6911 116.184 53.8402C115.913 53.986 115.697 54.1899 115.538 54.4517C115.379 54.7102 115.3 55.0052 115.3 55.3366V60H113.813Z" fill="#99A29E"/>
<defs>
<linearGradient id="paint0_linear_7_494" x1="40.5" y1="0" x2="78.5" y2="0" gradientUnits="userSpaceOnUse">
<stop stop-color="#1B543A"/>
<stop offset="1" stop-color="#30A46C"/>
</linearGradient>
<linearGradient id="paint1_linear_7_494" x1="54.0714" y1="0" x2="54.0714" y2="27.1698" gradientUnits="userSpaceOnUse">
<stop stop-color="#12A594"/>
<stop offset="1" stop-color="#12A594" stop-opacity="0"/>
</linearGradient>
</defs>
</svg>
